<svg xmlns="http://www.w3.org/2000/svg" viewBox="0 0 24 24" id="Business-Product-Scale--Streamline-Pixel" height="24" width="24">
  <desc>
    Business Product Scale Streamline Icon: https://streamlinehq.com
  </desc>
  <title>business-product-scale</title>
  <g>
    <path d="m17.715 11.43 0 -2.2874999999999996 -1.1400000000000001 0 0 2.2874999999999996 -1.1475 0 0 2.2874999999999996 1.1475 0 0 1.1400000000000001 1.1400000000000001 0 0 1.1400000000000001 3.4275 0 0 -1.1400000000000001 1.1400000000000001 0 0 -1.1400000000000001 1.1475 0 0 -2.2874999999999996 -1.1475 0 0 -2.2874999999999996 -1.1400000000000001 0 0 2.2874999999999996 -3.4275 0z" fill="#000000" stroke-width="0.75"></path>
    <path d="M20.0025 6.855h1.1400000000000001v2.2874999999999996h-1.1400000000000001Z" fill="#000000" stroke-width="0.75"></path>
    <path d="m18.855 6.855 1.1475 0 0 -3.4275 1.1400000000000001 0 0 -1.1400000000000001 -2.2874999999999996 0 0 1.1400000000000001 -2.2800000000000002 0 0 1.1475 2.2800000000000002 0 0 2.2800000000000002z" fill="#000000" stroke-width="0.75"></path>
    <path d="M17.715 6.855h1.1400000000000001v2.2874999999999996h-1.1400000000000001Z" fill="#000000" stroke-width="0.75"></path>
    <path d="m9.712499999999999 22.86 0 -1.1475 -1.1400000000000001 0 0 1.1475 -1.1475 0 0 1.1400000000000001 10.290000000000001 0 0 -1.1400000000000001 -1.1400000000000001 0 0 -1.1475 -1.1475 0 0 1.1475 -5.715 0z" fill="#000000" stroke-width="0.75"></path>
    <path d="M14.287500000000001 4.574999999999999h2.2874999999999996v1.1400000000000001h-2.2874999999999996Z" fill="#000000" stroke-width="0.75"></path>
    <path d="M13.14 1.1400000000000001h1.1475v1.1475h-1.1475Z" fill="#000000" stroke-width="0.75"></path>
    <path d="m12 20.572499999999998 -2.2874999999999996 0 0 1.1400000000000001 5.715 0 0 -1.1400000000000001 -2.2874999999999996 0 0 -13.7175 1.1475 0 0 -1.1400000000000001 -1.1475 0 0 -3.4275 -1.1400000000000001 0 0 4.5675 -2.2874999999999996 0 0 1.1475 2.2874999999999996 0 0 12.57z" fill="#000000" stroke-width="0.75"></path>
    <path d="M12 0h1.1400000000000001v1.1400000000000001H12Z" fill="#000000" stroke-width="0.75"></path>
    <path d="M10.86 1.1400000000000001H12v1.1475h-1.1400000000000001Z" fill="#000000" stroke-width="0.75"></path>
    <path d="M7.425000000000001 8.0025h2.2874999999999996v1.1400000000000001H7.425000000000001Z" fill="#000000" stroke-width="0.75"></path>
    <path d="m2.8575 17.145 0 -2.2874999999999996 -1.1400000000000001 0 0 2.2874999999999996 -1.1475 0 0 2.2874999999999996 1.1475 0 0 1.1400000000000001 1.1400000000000001 0 0 1.1400000000000001 3.4275 0 0 -1.1400000000000001 1.1400000000000001 0 0 -1.1400000000000001 1.1475 0 0 -2.2874999999999996 -1.1475 0 0 -2.2874999999999996 -1.1400000000000001 0 0 2.2874999999999996 -3.4275 0z" fill="#000000" stroke-width="0.75"></path>
    <path d="M5.1450000000000005 12.57h1.1400000000000001v2.2874999999999996H5.1450000000000005Z" fill="#000000" stroke-width="0.75"></path>
    <path d="M5.1450000000000005 9.1425H7.425000000000001v1.1475H5.1450000000000005Z" fill="#000000" stroke-width="0.75"></path>
    <path d="M2.8575 12.57h1.1400000000000001v2.2874999999999996H2.8575Z" fill="#000000" stroke-width="0.75"></path>
    <path d="m5.1450000000000005 12.57 0 -2.2800000000000002 -2.2874999999999996 0 0 1.1400000000000001 1.1400000000000001 0 0 1.1400000000000001 1.1475 0z" fill="#000000" stroke-width="0.75"></path>
  </g>
</svg>