<svg xmlns="http://www.w3.org/2000/svg" viewBox="0 0 24 24" id="Content-Files-Books-2--Streamline-Pixel" height="24" width="24">
  <desc>
    Content Files Books 2 Streamline Icon: https://streamlinehq.com
  </desc>
  <title>content-files-books-2</title>
  <g>
    <path d="M14.857499999999998 17.14125v-1.1400000000000001h-1.1400000000000001v1.1400000000000001h-5.715v-1.1400000000000001H6.862500000000001v-3.4275h1.1400000000000001v-1.1475h5.715v1.1475h1.1400000000000001v-1.1475h8.0025v1.1475H24v-2.2874999999999996h-4.5675V9.149999999999999h-1.1400000000000001v1.1400000000000001h-6.862500000000001V9.149999999999999h-1.1400000000000001v-1.1475h1.1400000000000001V6.85875h6.862500000000001v1.1400000000000001h1.1400000000000001V4.574999999999999h-1.1400000000000001v1.1400000000000001h-6.862500000000001V4.574999999999999h-1.1400000000000001v1.1400000000000001H1.1475v1.1475H0v3.4275h1.1475v1.1400000000000001h1.1400000000000001v1.1475h1.1475v-1.1475h2.2800000000000002v1.1475H4.574999999999999v3.4275h1.1400000000000001v1.1400000000000001H3.435v-1.1400000000000001H2.2874999999999996v1.1400000000000001H1.1475v1.1475H0v3.4275h1.1475v1.1400000000000001H24v-2.2874999999999996h-1.1400000000000001v1.1475H13.7175v-1.1475h-1.1400000000000001v-1.1400000000000001h1.1400000000000001v-1.1400000000000001h9.1425v1.1400000000000001H24v-3.4275h-1.1400000000000001v1.1400000000000001ZM4.574999999999999 9.149999999999999H2.2874999999999996v-1.1475H4.574999999999999Zm5.715 10.2825H9.149999999999999v1.1400000000000001h1.1400000000000001v1.1475H9.149999999999999v-1.1475h-1.1475v-1.1400000000000001h1.1475v-1.1400000000000001h1.1400000000000001Z" fill="#000000" stroke-width="0.75"></path>
    <path d="M21.72 12.57375h1.1400000000000001v3.4275h-1.1400000000000001Z" fill="#000000" stroke-width="0.75"></path>
    <path d="M14.857499999999998 19.42875h8.0025v1.1400000000000001H14.857499999999998Z" fill="#000000" stroke-width="0.75"></path>
    <path d="M16.005 14.85375h4.5675v1.1475h-4.5675Z" fill="#000000" stroke-width="0.75"></path>
    <path d="M16.005 12.57375h4.5675v1.1400000000000001h-4.5675Z" fill="#000000" stroke-width="0.75"></path>
    <path d="M12.5775 7.998749999999999h5.715v1.1475h-5.715Z" fill="#000000" stroke-width="0.75"></path>
    <path d="M12.5775 3.4312500000000004h5.715v1.1400000000000001h-5.715Z" fill="#000000" stroke-width="0.75"></path>
    <path d="M12.5775 12.57375h1.1400000000000001v3.4275h-1.1400000000000001Z" fill="#000000" stroke-width="0.75"></path>
    <path d="M9.149999999999999 3.4312500000000004h1.1400000000000001v1.1400000000000001H9.149999999999999Z" fill="#000000" stroke-width="0.75"></path>
    <path d="M2.2874999999999996 3.4312500000000004H4.574999999999999v1.1400000000000001H2.2874999999999996Z" fill="#000000" stroke-width="0.75"></path>
    <path d="m10.290000000000001 2.28375 0 1.1475 1.1400000000000001 0 0 -1.1475 6.862500000000001 0 0 1.1475 1.1400000000000001 0 0 -2.2874999999999996 -18.285 0 0 1.1400000000000001 9.1425 0z" fill="#000000" stroke-width="0.75"></path>
    <path d="M1.1475 12.57375h1.1400000000000001v3.4275H1.1475Z" fill="#000000" stroke-width="0.75"></path>
    <path d="M0 2.28375h1.1475v3.4275H0Z" fill="#000000" stroke-width="0.75"></path>
  </g>
</svg>