<svg xmlns="http://www.w3.org/2000/svg" viewBox="0 0 24 24" id="Business-Products-Bag-Money--Streamline-Pixel" height="24" width="24">
  <desc>
    Business Products Bag Money Streamline Icon: https://streamlinehq.com
  </desc>
  <title>business-products-bag-money</title>
  <g>
    <path d="M20.56875 13.7175h1.1475v5.715h-1.1475Z" fill="#000000" stroke-width="0.75"></path>
    <path d="M19.42875 19.4325h1.1400000000000001v2.2800000000000002h-1.1400000000000001Z" fill="#000000" stroke-width="0.75"></path>
    <path d="M19.42875 11.43h1.1400000000000001v2.2874999999999996h-1.1400000000000001Z" fill="#000000" stroke-width="0.75"></path>
    <path d="M18.28875 10.290000000000001h1.1400000000000001v1.1400000000000001h-1.1400000000000001Z" fill="#000000" stroke-width="0.75"></path>
    <path d="M17.14125 21.7125h2.2874999999999996v1.1475h-2.2874999999999996Z" fill="#000000" stroke-width="0.75"></path>
    <path d="M17.14125 9.1425h1.1475v1.1475h-1.1475Z" fill="#000000" stroke-width="0.75"></path>
    <path d="m17.14125 3.4275 1.1475 0 0 -3.4275 -2.2874999999999996 0 0 1.1400000000000001 1.1400000000000001 0 0 2.2874999999999996z" fill="#000000" stroke-width="0.75"></path>
    <path d="M16.00125 8.0025h1.1400000000000001v1.1400000000000001h-1.1400000000000001Z" fill="#000000" stroke-width="0.75"></path>
    <path d="M16.00125 3.4275h1.1400000000000001V4.574999999999999h-1.1400000000000001Z" fill="#000000" stroke-width="0.75"></path>
    <path d="M6.85875 22.86h10.2825V24H6.85875Z" fill="#000000" stroke-width="0.75"></path>
    <path d="M9.13875 10.290000000000001v1.1400000000000001h-1.1400000000000001v1.1400000000000001h-1.1400000000000001v5.715h1.1400000000000001v1.1475h1.1400000000000001v1.1400000000000001h5.715v-1.1400000000000001h1.1475v-1.1475h1.1400000000000001v-5.715h-1.1400000000000001v-1.1400000000000001h-1.1475v-1.1400000000000001Zm5.715 6.855h-1.1400000000000001v1.1400000000000001h-1.1400000000000001v1.1475h-1.1475v-1.1475h-1.1400000000000001v-1.1400000000000001h3.4275v-1.1475h-3.4275v-1.1400000000000001h-1.1475v-1.1400000000000001h1.1475v-1.1475h1.1400000000000001v-1.1400000000000001h1.1475v1.1400000000000001h1.1400000000000001v1.1475h-3.4275v1.1400000000000001h3.4275v1.1400000000000001h1.1400000000000001Z" fill="#000000" stroke-width="0.75"></path>
    <path d="M14.85375 6.855h1.1475v1.1475h-1.1475Z" fill="#000000" stroke-width="0.75"></path>
    <path d="M14.85375 4.574999999999999h1.1475v1.1400000000000001h-1.1475Z" fill="#000000" stroke-width="0.75"></path>
    <path d="M14.85375 1.1400000000000001h1.1475v1.1475h-1.1475Z" fill="#000000" stroke-width="0.75"></path>
    <path d="M13.713750000000001 2.2874999999999996h1.1400000000000001v1.1400000000000001h-1.1400000000000001Z" fill="#000000" stroke-width="0.75"></path>
    <path d="M12.57375 1.1400000000000001h1.1400000000000001v1.1475h-1.1400000000000001Z" fill="#000000" stroke-width="0.75"></path>
    <path d="M11.42625 0h1.1475v1.1400000000000001h-1.1475Z" fill="#000000" stroke-width="0.75"></path>
    <path d="M9.13875 5.715h5.715v1.1400000000000001h-5.715Z" fill="#000000" stroke-width="0.75"></path>
    <path d="M10.286249999999999 1.1400000000000001h1.1400000000000001v1.1475h-1.1400000000000001Z" fill="#000000" stroke-width="0.75"></path>
    <path d="M9.13875 2.2874999999999996h1.1475v1.1400000000000001h-1.1475Z" fill="#000000" stroke-width="0.75"></path>
    <path d="M7.998749999999999 6.855h1.1400000000000001v1.1475h-1.1400000000000001Z" fill="#000000" stroke-width="0.75"></path>
    <path d="M7.998749999999999 4.574999999999999h1.1400000000000001v1.1400000000000001h-1.1400000000000001Z" fill="#000000" stroke-width="0.75"></path>
    <path d="M7.998749999999999 1.1400000000000001h1.1400000000000001v1.1475h-1.1400000000000001Z" fill="#000000" stroke-width="0.75"></path>
    <path d="M6.85875 8.0025h1.1400000000000001v1.1400000000000001h-1.1400000000000001Z" fill="#000000" stroke-width="0.75"></path>
    <path d="M6.85875 3.4275h1.1400000000000001V4.574999999999999h-1.1400000000000001Z" fill="#000000" stroke-width="0.75"></path>
    <path d="M4.57125 21.7125h2.2874999999999996v1.1475h-2.2874999999999996Z" fill="#000000" stroke-width="0.75"></path>
    <path d="M5.71125 9.1425h1.1475v1.1475h-1.1475Z" fill="#000000" stroke-width="0.75"></path>
    <path d="m7.998749999999999 1.1400000000000001 0 -1.1400000000000001 -2.2874999999999996 0 0 3.4275 1.1475 0 0 -2.2874999999999996 1.1400000000000001 0z" fill="#000000" stroke-width="0.75"></path>
    <path d="M4.57125 10.290000000000001h1.1400000000000001v1.1400000000000001h-1.1400000000000001Z" fill="#000000" stroke-width="0.75"></path>
    <path d="M3.4312500000000004 19.4325h1.1400000000000001v2.2800000000000002h-1.1400000000000001Z" fill="#000000" stroke-width="0.75"></path>
    <path d="M3.4312500000000004 11.43h1.1400000000000001v2.2874999999999996h-1.1400000000000001Z" fill="#000000" stroke-width="0.75"></path>
    <path d="M2.28375 13.7175h1.1475v5.715h-1.1475Z" fill="#000000" stroke-width="0.75"></path>
  </g>
</svg>