<svg xmlns="http://www.w3.org/2000/svg" viewBox="0 0 24 24" id="Travel-Wayfinding-Beach-Coconut-Tree--Streamline-Pixel" height="24" width="24">
  <desc>
    Travel Wayfinding Beach Coconut Tree Streamline Icon: https://streamlinehq.com
  </desc>
  <title>travel-wayfinding-beach-coconut-tree</title>
  <g>
    <path d="M19.4325 17.145H24v1.1400000000000001h-4.5675Z" fill="#000000" stroke-width="0.75"></path>
    <path d="M20.572499999999998 10.2825h1.1400000000000001v2.2874999999999996h-1.1400000000000001Z" fill="#000000" stroke-width="0.75"></path>
    <path d="m20.572499999999998 5.715 0 1.1400000000000001 2.2874999999999996 0 0 -2.2874999999999996 -1.1475 0 0 1.1475 -1.1400000000000001 0z" fill="#000000" stroke-width="0.75"></path>
    <path d="M20.572499999999998 3.4275h1.1400000000000001v1.1400000000000001h-1.1400000000000001Z" fill="#000000" stroke-width="0.75"></path>
    <path d="M19.4325 12.57h1.1400000000000001v1.1400000000000001h-1.1400000000000001Z" fill="#000000" stroke-width="0.75"></path>
    <path d="M19.4325 9.1425h1.1400000000000001v1.1400000000000001h-1.1400000000000001Z" fill="#000000" stroke-width="0.75"></path>
    <path d="M13.7175 4.5675h6.855v1.1475h-6.855Z" fill="#000000" stroke-width="0.75"></path>
    <path d="M19.4325 2.2874999999999996h1.1400000000000001v1.1400000000000001h-1.1400000000000001Z" fill="#000000" stroke-width="0.75"></path>
    <path d="M18.285 18.285h1.1475v1.1400000000000001h-1.1475Z" fill="#000000" stroke-width="0.75"></path>
    <path d="M18.285 11.43h1.1475v1.1400000000000001h-1.1475Z" fill="#000000" stroke-width="0.75"></path>
    <path d="M18.285 8.0025h1.1475v1.1400000000000001h-1.1475Z" fill="#000000" stroke-width="0.75"></path>
    <path d="M16.005 10.2825h2.2800000000000002v1.1475h-2.2800000000000002Z" fill="#000000" stroke-width="0.75"></path>
    <path d="M17.145 14.857499999999998h-1.1400000000000001v-2.2874999999999996h-1.1475v-1.1400000000000001h-1.1400000000000001v-1.1475h-1.1475v-1.1400000000000001h-3.4275v2.2874999999999996h1.1475v2.2800000000000002h1.1400000000000001v2.2874999999999996h1.1400000000000001v5.715h-1.1400000000000001v1.1475h8.0025v-1.1475h-1.1475V19.424999999999997h-1.1400000000000001Zm-2.2874999999999996 6.855h-1.1400000000000001V19.424999999999997h1.1400000000000001Zm0 -4.5675h-1.1400000000000001v-2.2874999999999996h-1.1475v-2.2874999999999996h-1.1400000000000001v-1.1400000000000001h1.1400000000000001v1.1400000000000001h1.1475v2.2874999999999996h1.1400000000000001Z" fill="#000000" stroke-width="0.75"></path>
    <path d="M13.7175 9.1425h2.2874999999999996v1.1400000000000001h-2.2874999999999996Z" fill="#000000" stroke-width="0.75"></path>
    <path d="M12.57 1.1400000000000001h6.862500000000001v1.1475h-6.862500000000001Z" fill="#000000" stroke-width="0.75"></path>
    <path d="m12.57 8.0025 5.715 0 0 -1.1475 -4.5675 0 0 -1.1400000000000001 -1.1475 0 0 2.2874999999999996z" fill="#000000" stroke-width="0.75"></path>
    <path d="M11.43 2.2874999999999996h1.1400000000000001v1.1400000000000001h-1.1400000000000001Z" fill="#000000" stroke-width="0.75"></path>
    <path d="M6.855 18.285h4.574999999999999v1.1400000000000001h-4.574999999999999Z" fill="#000000" stroke-width="0.75"></path>
    <path d="M10.290000000000001 3.4275h1.1400000000000001v1.1400000000000001h-1.1400000000000001Z" fill="#000000" stroke-width="0.75"></path>
    <path d="M9.1425 4.5675h1.1475v1.1475h-1.1475Z" fill="#000000" stroke-width="0.75"></path>
    <path d="M8.0025 11.43h1.1400000000000001v3.4275h-1.1400000000000001Z" fill="#000000" stroke-width="0.75"></path>
    <path d="M8.0025 3.4275h1.1400000000000001v1.1400000000000001h-1.1400000000000001Z" fill="#000000" stroke-width="0.75"></path>
    <path d="M6.855 14.857499999999998h1.1475v1.1400000000000001H6.855Z" fill="#000000" stroke-width="0.75"></path>
    <path d="m6.855 11.43 1.1475 0 0 -2.2874999999999996 -2.2874999999999996 0 0 1.1400000000000001 1.1400000000000001 0 0 1.1475z" fill="#000000" stroke-width="0.75"></path>
    <path d="M5.715 19.424999999999997h1.1400000000000001v1.1475H5.715Z" fill="#000000" stroke-width="0.75"></path>
    <path d="M5.715 15.997499999999999h1.1400000000000001v1.1475H5.715Z" fill="#000000" stroke-width="0.75"></path>
    <path d="M5.715 11.43h1.1400000000000001v1.1400000000000001H5.715Z" fill="#000000" stroke-width="0.75"></path>
    <path d="m3.4275 6.855 0 1.1475 4.574999999999999 0 0 -2.2874999999999996 -1.1475 0 0 1.1400000000000001 -3.4275 0z" fill="#000000" stroke-width="0.75"></path>
    <path d="M4.574999999999999 12.57h1.1400000000000001v3.4275H4.574999999999999Z" fill="#000000" stroke-width="0.75"></path>
    <path d="M4.574999999999999 10.2825h1.1400000000000001v1.1475H4.574999999999999Z" fill="#000000" stroke-width="0.75"></path>
    <path d="M3.4275 4.5675h3.4275v1.1475H3.4275Z" fill="#000000" stroke-width="0.75"></path>
    <path d="M1.1475 20.572499999999998h4.5675v1.1400000000000001H1.1475Z" fill="#000000" stroke-width="0.75"></path>
    <path d="M3.4275 11.43H4.574999999999999v1.1400000000000001H3.4275Z" fill="#000000" stroke-width="0.75"></path>
    <path d="M2.2874999999999996 2.2874999999999996h5.715v1.1400000000000001H2.2874999999999996Z" fill="#000000" stroke-width="0.75"></path>
    <path d="M2.2874999999999996 12.57h1.1400000000000001v2.2874999999999996H2.2874999999999996Z" fill="#000000" stroke-width="0.75"></path>
    <path d="M2.2874999999999996 8.0025h1.1400000000000001v1.1400000000000001H2.2874999999999996Z" fill="#000000" stroke-width="0.75"></path>
    <path d="M2.2874999999999996 5.715h1.1400000000000001v1.1400000000000001H2.2874999999999996Z" fill="#000000" stroke-width="0.75"></path>
    <path d="M1.1475 14.857499999999998h1.1400000000000001v1.1400000000000001H1.1475Z" fill="#000000" stroke-width="0.75"></path>
    <path d="M1.1475 9.1425h1.1400000000000001v1.1400000000000001H1.1475Z" fill="#000000" stroke-width="0.75"></path>
    <path d="M1.1475 6.855h1.1400000000000001v1.1475H1.1475Z" fill="#000000" stroke-width="0.75"></path>
    <path d="M1.1475 3.4275h1.1400000000000001v1.1400000000000001H1.1475Z" fill="#000000" stroke-width="0.75"></path>
    <path d="M0 21.7125h1.1475v1.1475H0Z" fill="#000000" stroke-width="0.75"></path>
    <path d="M0 10.2825h1.1475v4.574999999999999H0Z" fill="#000000" stroke-width="0.75"></path>
    <path d="M0 4.5675h1.1475v2.2874999999999996H0Z" fill="#000000" stroke-width="0.75"></path>
  </g>
</svg>